<?xml version="1.0" encoding="UTF-8"?>
<svg version="1.1" xmlns="http://www.w3.org/2000/svg" width="488" height="648">
<path d="M0 0 C3.50926384 1.40370554 4.43872382 3.90808573 6.5 7 C9.07061311 7.64767793 9.07061311 7.64767793 11.5 8 C12.8125 10.0625 12.8125 10.0625 13.5 12 C14.16 12 14.82 12 15.5 12 C15.87125 10.5459375 15.87125 10.5459375 16.25 9.0625 C16.6625 8.051875 17.075 7.04125 17.5 6 C19.625 5.125 19.625 5.125 21.5 5 C22.49 6.98 22.49 6.98 23.5 9 C24.5725 8.9175 25.645 8.835 26.75 8.75 C30.5 9 30.5 9 32.875 10.5625 C34.9523486 13.6785229 35.21574109 16.30463414 35.5 20 C36.36625 19.649375 37.2325 19.29875 38.125 18.9375 C42.40323322 17.74910188 45.23166173 18.35320475 49.4453125 19.5546875 C53.82091669 20.76920882 57.00964805 21.32669489 61.5 20 C63.7072358 18.51199628 63.7072358 18.51199628 65.5 17 C66.16 17 66.82 17 67.5 17 C67.7475 17.94875 67.995 18.8975 68.25 19.875 C69.70836961 23.52092402 70.1375638 23.46288631 73.5 25 C74.69652138 26.48756713 75.89257629 27.97552655 77.08203125 29.46875 C80.17874925 32.8128642 83.85434699 34.85994442 88.4375 35.25 C89.118125 35.1675 89.79875 35.085 90.5 35 C90.5 34.34 90.5 33.68 90.5 33 C95.9051771 33.37710538 97.92372056 35.03709576 101.5 39 C102.49 39.66 103.48 40.32 104.5 41 C105.01171875 43.1640625 105.01171875 43.1640625 105.1875 45.625 C105.25324219 46.44226563 105.31898438 47.25953125 105.38671875 48.1015625 C105.42410156 48.72804687 105.46148437 49.35453125 105.5 50 C107.15 50.33 108.8 50.66 110.5 51 C110.5 51.66 110.5 52.32 110.5 53 C111.6446875 52.8453125 111.6446875 52.8453125 112.8125 52.6875 C113.699375 52.790625 114.58625 52.89375 115.5 53 C117.1875 55.4375 117.1875 55.4375 118.5 58 C119.16 58.33 119.82 58.66 120.5 59 C121.74635828 64.1931595 121.94865309 68.19338468 119.5 73 C116.99686008 74.19960166 114.46739899 75.03129218 111.83203125 75.8984375 C109.42334838 76.78497677 109.42334838 76.78497677 108.38671875 78.7265625 C108.17660156 79.35304688 107.96648437 79.97953125 107.75 80.625 C107.3375 81.73875 106.925 82.8525 106.5 84 C103.3125 85.4375 103.3125 85.4375 100.5 86 C100.83 87.98 101.16 89.96 101.5 92 C99.85 92.99 98.2 93.98 96.5 95 C97.50556862 98.24016555 98.46572403 98.98143385 101.5 100.625 C104.52258494 101.83655805 107.34079794 102.23625767 110.5625 102.625 C113.77795083 103.18611813 115.11592902 103.57662112 117.33203125 106.01953125 C118.875 108.4375 118.875 108.4375 120.1484375 110.80859375 C123.13057912 115.64380026 127.16974487 116.66743622 132.5 118 C131.84 120.31 131.18 122.62 130.5 125 C131.16 125 131.82 125 132.5 125 C132.644375 126.258125 132.78875 127.51625 132.9375 128.8125 C133.61183344 131.47682442 133.97783868 132.64922642 136.28515625 134.19921875 C141.71572792 136.16265295 147.79180057 137.11379501 153.5 136 C155.76725889 134.53594045 156.85235583 133.1968589 158.5 131 C161.5 132 161.5 132 162.5 134 C164.12752231 133.74476126 165.75203196 133.47025506 167.375 133.1875 C168.27992188 133.03667969 169.18484375 132.88585937 170.1171875 132.73046875 C172.84412478 132.16948699 172.84412478 132.16948699 174.5 129 C178.125 128.8125 178.125 128.8125 181.5 129 C181.5 129.99 181.5 130.98 181.5 132 C184.49332739 131.0022242 185.44766315 130.2477975 187.5 128 C190.90312738 129.05875074 193.51353231 130.00902154 196.5 132 C196.83 131.34 197.16 130.68 197.5 130 C199.49541868 129.31974363 201.49617991 128.65509503 203.5 128 C204.28375 127.484375 205.0675 126.96875 205.875 126.4375 C209.56258337 124.41810911 212.28518783 124.13596168 216.5 124 C218.1875 125.3125 218.1875 125.3125 219.5 127 C221.16392045 127.67349161 222.83032028 128.3409159 224.5 129 C224.83 129.66 225.16 130.32 225.5 131 C224.84 131.99 224.18 132.98 223.5 134 C223.6957792 136.40144267 223.6957792 136.40144267 224.5 139 C224.7475 140.051875 224.995 141.10375 225.25 142.1875 C226.23195836 145.20933725 226.23195836 145.20933725 229.0625 146.25 C230.2690625 146.62125 230.2690625 146.62125 231.5 147 C232.82229189 149.64458379 232.59677194 151.67761301 232.5625 154.625 C232.55347656 155.62789062 232.54445313 156.63078125 232.53515625 157.6640625 C232.51775391 158.82035156 232.51775391 158.82035156 232.5 160 C229.2 159.67 225.9 159.34 222.5 159 C222.83 160.32 223.16 161.64 223.5 163 C222.38671875 164.76953125 222.38671875 164.76953125 220.5 166 C218.01953125 166.07421875 218.01953125 166.07421875 215.3125 165.6875 C214.41144531 165.56761719 213.51039063 165.44773438 212.58203125 165.32421875 C211.89496094 165.21722656 211.20789063 165.11023438 210.5 165 C210.644375 165.99 210.78875 166.98 210.9375 168 C211.00555932 172.7544296 208.16435839 175.22000621 205.03125 178.49609375 C204.5259375 178.99238281 204.020625 179.48867187 203.5 180 C200.3614943 179.25561083 197.47990339 178.24162641 194.5 177 C195.82 179.64 197.14 182.28 198.5 185 C197.18 185 195.86 185 194.5 185 C194.12875 185.9590625 194.12875 185.9590625 193.75 186.9375 C192.5 189 192.5 189 190.625 189.8125 C188.32969717 190.01502672 186.68266076 189.70156953 184.5 189 C184.83 189.7425 185.16 190.485 185.5 191.25 C186.5 194 186.5 194 186.5 198 C184.52 198 182.54 198 180.5 198 C180.355625 198.78375 180.21125 199.5675 180.0625 200.375 C179.5 203 179.5 203 178.5 205 C177.406875 205.0825 176.31375 205.165 175.1875 205.25 C171.27641209 205.61864786 171.27641209 205.61864786 169.3125 208.9375 C168.714375 209.948125 168.11625 210.95875 167.5 212 C166.16666667 212.66666667 164.83333333 213.33333333 163.5 214 C162.901875 214.969375 162.30375 215.93875 161.6875 216.9375 C159.00459176 220.69357154 156.74682764 221.36087354 152.5 223 C150.81522656 224.31037934 149.14351457 225.63823078 147.5 227 C146.84 227 146.18 227 145.5 227 C145.5825 227.928125 145.665 228.85625 145.75 229.8125 C145.6675 230.864375 145.585 231.91625 145.5 233 C144.819375 233.433125 144.13875 233.86625 143.4375 234.3125 C142.798125 234.869375 142.15875 235.42625 141.5 236 C141.56030093 238.14216389 141.56030093 238.14216389 142 240.5 C142.38671875 242.8984375 142.38671875 242.8984375 142.5 245 C140.8125 247.125 140.8125 247.125 138.5 248 C136.5 248.0625 136.5 248.0625 134.5 247 C132.21818865 244.13143716 130.67506688 241.94098449 130 238.3125 C129.73608767 235.85441828 129.73608767 235.85441828 127.625 234.625 C125.5 233 125.5 233 124.0625 229.5625 C122.36159051 225.68442635 120.82591918 224.47311939 117.5 222 C116.81822584 220.67432801 116.14808564 219.34246312 115.5 218 C114.51 217.67 113.52 217.34 112.5 217 C112.5 217.66 112.5 218.32 112.5 219 C110.47924434 219.02734857 108.45837779 219.0465517 106.4375 219.0625 C105.31214844 219.07410156 104.18679688 219.08570313 103.02734375 219.09765625 C99.5 219 99.5 219 95.9609375 218.328125 C91.79527988 217.93318681 89.87887621 218.78894661 86.1875 220.6875 C81.36116525 223.08675061 76.56216752 225.23226878 71.5234375 227.140625 C69.25175119 228.03167135 69.25175119 228.03167135 66.5 230 C65.51 230 64.52 230 63.5 230 C62.04519637 231.38466456 62.04519637 231.38466456 60.75 233.3125 C60.22921875 234.03695312 59.7084375 234.76140625 59.171875 235.5078125 C57.37161086 238.19138381 55.68769511 240.93192701 54 243.6875 C51.25020434 248.06770548 48.82345028 251.15045323 44.5 254 C43.51 254 42.52 254 41.5 254 C41.73591558 252.0789731 41.97323088 250.15810438 42.21875 248.23828125 C42.47455577 246.20249366 42.70730809 244.16384266 42.9375 242.125 C43.5 239 43.5 239 45.5 237 C45.62908876 234.92106609 45.62908876 234.92106609 45.4375 232.625 C45.34955038 229.41225205 45.33587143 228.2803863 47 225.4375 C47.495 224.963125 47.99 224.48875 48.5 224 C47.03760185 224.20160633 45.57988435 224.43737004 44.125 224.6875 C42.90683594 224.87892578 42.90683594 224.87892578 41.6640625 225.07421875 C40.59285156 225.53248047 40.59285156 225.53248047 39.5 226 C39.23832031 226.75410156 38.97664062 227.50820313 38.70703125 228.28515625 C36.85436898 232.45214745 33.49145187 233.69740773 29.5625 235.75 C28.83353516 236.14832031 28.10457031 236.54664063 27.35351562 236.95703125 C24.41188563 238.54783024 21.68144948 239.93951684 18.5 241 C19.16 241.33 19.82 241.66 20.5 242 C20.84907695 245.75257718 20.77011863 247.56588078 18.75 250.8125 C16.44162817 253.05675039 15.52670903 253.40864718 12.5 254 C12.34144531 253.39671875 12.18289063 252.7934375 12.01953125 252.171875 C10.51536863 247.01949476 9.34263363 243.85591214 4.5 241 C3.84 241 3.18 241 2.5 241 C2.17 242.32 1.84 243.64 1.5 245 C-3.12 245 -7.74 245 -12.5 245 C-12.5 246.65 -12.5 248.3 -12.5 250 C-14.15 250.33 -15.8 250.66 -17.5 251 C-19.09138085 255.17737474 -19.71278058 258.53160785 -19.5 263 C-21.15 263.33 -22.8 263.66 -24.5 264 C-23.2508258 267.45925163 -21.82472205 270.14693203 -19.5 273 C-20.16 274.32 -20.82 275.64 -21.5 277 C-23.15 277 -24.8 277 -26.5 277 C-25.42598892 279.91517292 -24.72189824 281.77810176 -22.5 284 C-24.83317216 284.77772405 -27.11435923 285.42415568 -29.5 286 C-29.17 287.98 -28.84 289.96 -28.5 292 C-29.49 292 -30.48 292 -31.5 292 C-31.8403125 293.11375 -31.8403125 293.11375 -32.1875 294.25 C-33.76663416 297.55866205 -35.6054706 298.79464426 -38.5 301 C-39.84736973 302.65533995 -41.18334336 304.32012773 -42.5 306 C-43.16 306.33 -43.82 306.66 -44.5 307 C-45.04509475 309.04826219 -45.04509475 309.04826219 -45.375 311.5 C-46.50060101 317.7444056 -48.90337931 323.08443178 -51.9375 328.625 C-52.80452749 332.28578274 -51.04524495 334.6717801 -49.5 338 C-49.3125 340.9375 -49.3125 340.9375 -49.5 343 C-48.96375 342.62875 -48.4275 342.2575 -47.875 341.875 C-44.55387103 340.65142617 -42.68909583 341.69536989 -39.5 343 C-39.83 341.35 -40.16 339.7 -40.5 338 C-38.9375 336.8125 -38.9375 336.8125 -36.5 336 C-33.125 337.25 -33.125 337.25 -31.3125 338.13671875 C-29.28674617 339.15310811 -29.28674617 339.15310811 -26.125 340.0625 C-23.5 341 -23.5 341 -22.5 343 C-22.58651631 344.54613014 -22.74002636 346.08909387 -22.9375 347.625 C-23.03933594 348.44226563 -23.14117187 349.25953125 -23.24609375 350.1015625 C-23.32988281 350.72804688 -23.41367188 351.35453125 -23.5 352 C-24.16 352 -24.82 352 -25.5 352 C-25.54125 352.598125 -25.5825 353.19625 -25.625 353.8125 C-26.5 356 -26.5 356 -29.5 357.3125 C-32.83683639 358.73353602 -32.83683639 358.73353602 -33.5 362.3125 C-33.71432593 365.90191864 -33.71432593 365.90191864 -32.5 368.6875 C-31.17324522 373.08237521 -31.76894989 376.77700172 -32.30859375 381.29296875 C-32.68020237 384.09664589 -32.68020237 384.09664589 -31.5 387 C-29.19 386.67 -26.88 386.34 -24.5 386 C-21.65254164 390.27118754 -21.45230118 394.54271872 -20.75 399.5625 C-20.59917969 400.53380859 -20.44835937 401.50511719 -20.29296875 402.50585938 C-20.16019531 403.43333984 -20.02742187 404.36082031 -19.890625 405.31640625 C-19.76719727 406.16662354 -19.64376953 407.01684082 -19.51660156 407.89282227 C-19.51112305 408.58819092 -19.50564453 409.28355957 -19.5 410 C-21.5 412 -21.5 412 -23.5 412.375 C-25.70265017 412.82123176 -25.70265017 412.82123176 -26.75 415.0625 C-26.9975 415.701875 -27.245 416.34125 -27.5 417 C-29.8125 416.8125 -29.8125 416.8125 -32.5 416 C-34.43791421 413.36997358 -35.46704519 411.09886444 -36.5 408 C-41.33821581 408.45358273 -46.03470686 410.59138221 -49.5 414 C-50.12583716 416.84690336 -50.12583716 416.84690336 -50.5 420 C-51.2901313 422.07943339 -52.12587814 424.14195321 -53 426.1875 C-56.43712047 434.94468519 -58.11786286 444.01514225 -54.5 453 C-52.35346161 456.80342861 -50.00152823 460.42161068 -47.5 464 C-54.54996015 476.0375439 -54.54996015 476.0375439 -60.07421875 477.83984375 C-62.70123813 478.18116452 -64.88109134 478.41664456 -67.5 478 C-67.99371094 477.48953125 -68.48742187 476.9790625 -68.99609375 476.453125 C-70.42348 474.73656487 -70.42348 474.73656487 -72.76953125 475.00390625 C-83.76210452 477.41855752 -89.21824026 483.32956142 -95.8125 492.0625 C-99.21645877 497.98790971 -100.40439946 504.23666492 -99.5 511 C-98.14114884 513.40083438 -98.14114884 513.40083438 -96.5 515 C-96.5 515.66 -96.5 516.32 -96.5 517 C-97.82 517.33 -99.14 517.66 -100.5 518 C-100.190625 518.515625 -99.88125 519.03125 -99.5625 519.5625 C-98.21151763 522.6618125 -97.93254375 525.6604505 -97.5 529 C-99.00240234 528.94779297 -99.00240234 528.94779297 -100.53515625 528.89453125 C-110.48411083 528.41875254 -110.48411083 528.41875254 -119.5 532 C-120.87843192 533.96918846 -122.21810412 535.96664791 -123.5 538 C-125.75 538.875 -125.75 538.875 -127.5 539 C-127.5825 538.38125 -127.665 537.7625 -127.75 537.125 C-128.31258459 534.81562433 -128.31258459 534.81562433 -130.5625 533.75 C-131.201875 533.5025 -131.84125 533.255 -132.5 533 C-132.17 534.65 -131.84 536.3 -131.5 538 C-130.51 538.33 -129.52 538.66 -128.5 539 C-128.83333333 540.66666667 -129.16666667 542.33333333 -129.5 544 C-129.644375 544.886875 -129.78875 545.77375 -129.9375 546.6875 C-130.5 549 -130.5 549 -132.5 551 C-132.149375 551.86625 -131.79875 552.7325 -131.4375 553.625 C-129.84783764 559.34778449 -131.65425637 564.46276912 -133.5 570 C-134.16 570.33 -134.82 570.66 -135.5 571 C-136.38936214 572.61624466 -137.21449831 574.26830891 -138 575.9375 C-140.29019074 580.79019074 -140.29019074 580.79019074 -142.5 583 C-143.1425235 585.06874034 -143.1425235 585.06874034 -143.5 587 C-144.82 587.33 -146.14 587.66 -147.5 588 C-147.5 588.66 -147.5 589.32 -147.5 590 C-149.48 590.33 -151.46 590.66 -153.5 591 C-153.83 592.98 -154.16 594.96 -154.5 597 C-155.82 597.33 -157.14 597.66 -158.5 598 C-158.5825 598.61875 -158.665 599.2375 -158.75 599.875 C-159.5 602 -159.5 602 -161.3203125 602.87890625 C-163.93381394 604.22312652 -165.2630436 605.80272472 -167.125 608.0625 C-170.30555556 611.90277778 -170.30555556 611.90277778 -172.5 613 C-172.005 610.525 -172.005 610.525 -171.5 608 C-172.16 608 -172.82 608 -173.5 608 C-173.78875 606.9275 -174.0775 605.855 -174.375 604.75 C-175.30232711 601.21471698 -175.30232711 601.21471698 -176.5625 599 C-179.44328164 592.8543325 -178.7770584 584.8887054 -179 578.25 C-179.24190064 571.15424795 -179.61186928 564.13224705 -180.39648438 557.07324219 C-180.43064453 556.38907227 -180.46480469 555.70490234 -180.5 555 C-180.17 554.67 -179.84 554.34 -179.5 554 C-180.6446875 553.1646875 -180.6446875 553.1646875 -181.8125 552.3125 C-188.9109294 545.10944381 -188.24875209 530.2900411 -189.15020752 520.63528442 C-190.26425199 508.81410197 -191.59408055 497.17879523 -194.125 485.5625 C-196.5390425 474.37995011 -197.88174444 463.41872002 -198.5 452 C-198.56654785 451.06881348 -198.6330957 450.13762695 -198.70166016 449.17822266 C-199.64811966 435.05800534 -197.90872868 422.14495882 -194.75 408.4375 C-194.57591614 407.67684235 -194.40183228 406.91618469 -194.22247314 406.13247681 C-189.7611783 386.9658263 -189.7611783 386.9658263 -184.4296875 382.1171875 C-183.75164062 381.70726562 -183.07359375 381.29734375 -182.375 380.875 C-178.57664895 378.31478548 -177.80479597 376.41623251 -176.5 372 C-174.83927151 371.31867549 -173.172233 370.65257873 -171.5 370 C-167.81613647 363.94793849 -166.734488 358.00255241 -167.5 351 C-168.97987963 348.25427272 -168.97987963 348.25427272 -170.5 346 C-170.4375 343.8125 -170.4375 343.8125 -169.5 342 C-167.4375 340.75 -167.4375 340.75 -165.5 340 C-164.51 340.66 -163.52 341.32 -162.5 342 C-159.45804573 342.33340471 -159.45804573 342.33340471 -156.5 342 C-154.03721199 339.53721199 -153.50228745 337.29323018 -152.5 334 C-150.06304285 333.77818594 -147.626474 333.57208881 -145.1875 333.375 C-144.49720703 333.31054688 -143.80691406 333.24609375 -143.09570312 333.1796875 C-139.2440028 332.88197153 -137.81145584 332.79236277 -134.5 335 C-134.995 331.535 -134.995 331.535 -135.5 328 C-134.77296875 327.47212891 -134.77296875 327.47212891 -134.03125 326.93359375 C-122.61512657 318.52517976 -111.97551918 309.3596245 -106.5 296 C-105.84 295.34 -105.18 294.68 -104.5 294 C-104.273125 292.989375 -104.04625 291.97875 -103.8125 290.9375 C-102.0872405 284.41683419 -96.99549233 279.3251611 -92.1875 274.8125 C-89.29136159 272.23840918 -89.29136159 272.23840918 -88.6875 268.875 C-87.5 266 -87.5 266 -85.5625 264.9453125 C-83.96562322 264.30971352 -82.36389519 263.68618273 -80.7578125 263.07421875 C-77.28824907 261.42347491 -75.74859354 259.06626392 -73.5 256 C-72.84 255.67 -72.18 255.34 -71.5 255 C-71.025625 254.030625 -70.55125 253.06125 -70.0625 252.0625 C-68.5 249 -68.5 249 -65.5 247 C-65.0875 246.236875 -64.675 245.47375 -64.25 244.6875 C-62.22453215 241.57696009 -60.09854167 240.10496264 -57.0234375 238.11328125 C-55.33974166 237.06139093 -55.33974166 237.06139093 -54.5 235 C-53.84 235 -53.18 235 -52.5 235 C-52.933125 233.2365625 -52.933125 233.2365625 -53.375 231.4375 C-53.71228088 228.75825469 -53.72301789 227.41805567 -52.44140625 225.015625 C-48.36198281 220.05674144 -44.11738177 217.57671124 -37.8125 216.1875 C-36.719375 215.795625 -35.62625 215.40375 -34.5 215 C-34.108125 213.989375 -33.71625 212.97875 -33.3125 211.9375 C-32.714375 210.968125 -32.11625 209.99875 -31.5 209 C-28.47272311 208.45652744 -25.53696195 208.36989083 -22.46484375 208.265625 C-18.32023883 207.89430335 -16.49541338 206.82900152 -13.5 204 C-13.5 203.01 -13.5 202.02 -13.5 201 C-14.82 200.34 -16.14 199.68 -17.5 199 C-17.5 198.34 -17.5 197.68 -17.5 197 C-16.51 197 -15.52 197 -14.5 197 C-14.4175 196.236875 -14.335 195.47375 -14.25 194.6875 C-13.34730645 191.45284809 -12.36406539 190.64900735 -9.5 189 C-8.84 189 -8.18 189 -7.5 189 C-7.17 185.37 -6.84 181.74 -6.5 178 C-8.15 178 -9.8 178 -11.5 178 C-10.84 174.04 -10.18 170.08 -9.5 166 C-7.85 166 -6.2 166 -4.5 166 C-4.66048828 164.47632813 -4.66048828 164.47632813 -4.82421875 162.921875 C-5.71883327 153.24044635 -6.60256074 143.07421987 -0.125 135.0625 C0.74125 134.381875 1.6075 133.70125 2.5 133 C3.263125 132.05125 4.02625 131.1025 4.8125 130.125 C7.72942355 127.81859533 8.09373383 127.69635246 11.5625 128.0625 C14.46148927 128.63243362 16.97292141 129.42057588 19.5 131 C19.5 130.34 19.5 129.68 19.5 129 C22.14 128.67 24.78 128.34 27.5 128 C26.78714844 127.97421875 26.07429687 127.9484375 25.33984375 127.921875 C19.00852723 127.54693836 14.558088 126.95850365 9.5 123 C8.8203125 120.359375 8.8203125 120.359375 8.5 118 C6.39505699 118.08708038 4.29097858 118.19525693 2.1875 118.3125 C1.01574219 118.37050781 -0.15601563 118.42851562 -1.36328125 118.48828125 C-4.73919502 119.03902185 -5.35847589 119.52851296 -7.5 122 C-9.82495277 122.38749213 -12.1599583 122.71758117 -14.5 123 C-16.1744239 123.6469365 -17.84302621 124.30959426 -19.5 125 C-20.49 125 -21.48 125 -22.5 125 C-22.33951172 126.01320312 -22.33951172 126.01320312 -22.17578125 127.046875 C-22.05589844 127.93890625 -21.93601563 128.8309375 -21.8125 129.75 C-21.62107422 131.07257813 -21.62107422 131.07257813 -21.42578125 132.421875 C-21.51756617 135.61019343 -22.60546811 136.51953041 -24.5 139 C-24.71279863 141.41773762 -24.71279863 141.41773762 -24.4375 144 C-24.21629522 150.55650972 -26.13584982 155.9524194 -28.5 162 C-26.19 162.66 -23.88 163.32 -21.5 164 C-22.04724567 167.8307197 -23.78155271 169.36924456 -26.5 172 C-26.5 172.66 -26.5 173.32 -26.5 174 C-27.49 174 -28.48 174 -29.5 174 C-31.49097846 171.01353231 -32.44124926 168.40312738 -33.5 165 C-34.44875 165.515625 -35.3975 166.03125 -36.375 166.5625 C-37.40625 167.036875 -38.4375 167.51125 -39.5 168 C-40.16 167.67 -40.82 167.34 -41.5 167 C-42.2236014 164.52498787 -42.80444938 162.14418186 -43.3125 159.625 C-43.47169922 158.93921875 -43.63089844 158.2534375 -43.79492188 157.546875 C-44.20703125 155.5390625 -44.20703125 155.5390625 -44.5 152 C-43.07421875 150.15234375 -43.07421875 150.15234375 -41.5 149 C-41.3423415 146.87957244 -41.3423415 146.87957244 -42.5 145 C-44.99034386 143.70339566 -44.99034386 143.70339566 -47.5 143 C-47.5 142.34 -47.5 141.68 -47.5 141 C-43.5018221 138.12630963 -39.10022425 136.63736795 -34.5 135 C-34.14393187 130.03448675 -34.14393187 130.03448675 -36 125.5625 C-36.495 125.046875 -36.99 124.53125 -37.5 124 C-37.190625 123.4225 -36.88125 122.845 -36.5625 122.25 C-35.25540822 119.48204095 -34.5 117.06638853 -34.5 114 C-35.82 114 -37.14 114 -38.5 114 C-39.11875 112.63875 -39.11875 112.63875 -39.75 111.25 C-41.26843953 107.9657107 -41.26843953 107.9657107 -43.75 106.0625 C-45.5 104 -45.5 104 -45.25 100.25 C-44.87875 98.64125 -44.87875 98.64125 -44.5 97 C-42.025 96.01 -42.025 96.01 -39.5 95 C-39.5 94.34 -39.5 93.68 -39.5 93 C-38.18 92.34 -36.86 91.68 -35.5 91 C-35.98578543 87.87709365 -36.4986012 85.00419641 -37.5 82 C-35.025 81.505 -35.025 81.505 -32.5 81 C-30.32691449 74.79118426 -30.24568423 71.73808585 -33 65.6875 C-33.75796875 64.20830078 -33.75796875 64.20830078 -34.53125 62.69921875 C-35.5 60 -35.5 60 -34.65625 57.64453125 C-34.2746875 57.10183594 -33.893125 56.55914062 -33.5 56 C-32.84 56 -32.18 56 -31.5 56 C-32.49 51.38 -33.48 46.76 -34.5 42 C-30.50889681 40.0044484 -28.80013434 39.80453935 -24.5 40 C-24.21125 38.906875 -23.9225 37.81375 -23.625 36.6875 C-22.5 33 -22.5 33 -20.5 30 C-20.72629511 27.05816358 -21.0809789 25.46930364 -23.0625 23.25 C-25.02048149 20.18533332 -24.69068631 17.77869353 -24.5078125 14.21875 C-24.49988734 11.9680049 -24.86469972 10.15024711 -25.5 8 C-24.324375 7.38125 -24.324375 7.38125 -23.125 6.75 C-20.44108344 4.9607223 -19.61901051 3.95011861 -18.5 1 C-16.125 0.875 -16.125 0.875 -13.5 1 C-12.51 1.99 -12.51 1.99 -11.5 3 C-8.81728969 2.71760944 -6.85525335 2.19983001 -4.5 0.875 C-2.5 0 -2.5 0 0 0 Z " fill="#000000" transform="translate(250.5,34)"/>
<path d="M0 0 C2.44710376 1.86977097 2.96931493 2.82502483 3.51171875 5.91796875 C3.56972656 6.99691406 3.62773437 8.07585937 3.6875 9.1875 C3.75324219 10.27417969 3.81898438 11.36085938 3.88671875 12.48046875 C3.92410156 13.31191406 3.96148437 14.14335937 4 15 C-6.37357631 19.40774487 -6.37357631 19.40774487 -12 20 C-12.33 20.99 -12.66 21.98 -13 23 C-13.66 23 -14.32 23 -15 23 C-15.226875 23.556875 -15.45375 24.11375 -15.6875 24.6875 C-17.36718835 27.6469509 -19.54133285 29.66126784 -22 32 C-22.598125 32.598125 -23.19625 33.19625 -23.8125 33.8125 C-24.204375 34.204375 -24.59625 34.59625 -25 35 C-25.66 33.35 -26.32 31.7 -27 30 C-26.236875 29.608125 -25.47375 29.21625 -24.6875 28.8125 C-20.60273953 26.05766155 -19.34486847 23.26451774 -18.0625 18.5625 C-15.81037488 11.01125696 -12.02767288 8.04518084 -5.33984375 4.39453125 C-3.18503098 3.11027723 -1.6680129 1.85395532 0 0 Z " fill="#000000" transform="translate(257,313)"/>
<path d="M0 0 C0.99 0.99 1.98 1.98 3 3 C3.66 2.67 4.32 2.34 5 2 C5.08636719 2.58007812 5.17273438 3.16015625 5.26171875 3.7578125 C6.32031891 9.64324093 7.95697591 12.6377898 12 17 C12 17.66 12 18.32 12 19 C12.66 19 13.32 19 14 19 C14.33 21.97 14.66 24.94 15 28 C14.34 28 13.68 28 13 28 C12.773125 27.236875 12.54625 26.47375 12.3125 25.6875 C10.72697825 22.44095547 9.09785421 21.71197206 6 20 C6 19.34 6 18.68 6 18 C5.34 18 4.68 18 4 18 C3.49632243 16.54293274 2.99717444 15.08429904 2.5 13.625 C2.2215625 12.81289063 1.943125 12.00078125 1.65625 11.1640625 C1 9 1 9 1 7 C-1.475 6.01 -1.475 6.01 -4 5 C-2.68 3.35 -1.36 1.7 0 0 Z " fill="#000000" transform="translate(290,476)"/>
</svg>
